Coordinates
version=1
nRows=17
nColumns=36
inDegrees=yes

Units are S.I. units (second, meters, Newtons, ...)
If the header above contains a line with 'inDegrees', this indicates whether rotational values are in degrees (yes) or radians (no).

endheader
time	pelvis_tilt	pelvis_list	pelvis_rotation	pelvis_tx	pelvis_ty	pelvis_tz	hip_flexion_r	hip_adduction_r	hip_rotation_r	knee_angle_r	knee_angle_r_beta	ankle_angle_r	subtalar_angle_r	mtp_angle_r	hip_flexion_l	hip_adduction_l	hip_rotation_l	knee_angle_l	knee_angle_l_beta	ankle_angle_l	subtalar_angle_l	mtp_angle_l	lumbar_extension	lumbar_bending	lumbar_rotation	arm_flex_r	arm_add_r	arm_rot_r	elbow_flex_r	pro_sup_r	arm_flex_l	arm_add_l	arm_rot_l	elbow_flex_l	pro_sup_l
     13.38333330	     -5.22390196	      5.46988853	    -11.10078725	      0.18440910	      1.06919132	      0.09902386	      4.94589785	      3.18325708	     -5.11517959	      3.21974970	      0.05619523	      8.35098813	     -2.27214963	     -7.49999987	     12.37955086	     -1.97884005	     -1.13035511	     17.15854172	      0.29947305	      5.87592704	     -1.26375822	     -7.49999987	      0.92539751	      1.06823417	    -11.16293506	     86.96215706	      0.84878012	     65.24480247	    120.14271501	     85.11715644	     86.23621376	     -3.10619838	     67.20085286	    128.56854879	     80.09406036
     13.40000000	     -5.18953402	      5.45706409	    -11.02054947	      0.18412591	      1.07033518	      0.09951837	      4.96741864	      3.21357545	     -5.08468444	      3.35066414	      0.05848012	      8.40009190	     -2.47874672	     -7.49999987	     12.44915726	     -2.01945657	     -0.97273098	     17.32444940	      0.30236868	      5.74903679	     -1.31763081	     -7.49999987	      0.88977613	      1.06501138	    -10.86561057	     87.23450738	      0.87356862	     64.99224733	    119.75041483	     88.69948750	     86.15052127	     -2.55756906	     66.72809811	    128.73037227	     83.04184754
     13.41666670	     -5.35747467	      5.46765342	    -10.95195749	      0.18066827	      1.07024368	      0.09917798	      5.39702597	      3.24890740	     -5.10004762	      3.59763932	      0.06279065	      8.42731450	     -2.86265654	     -7.49999987	     12.92940181	     -2.08476953	     -0.91515976	     17.57159006	      0.30668210	      5.69835249	     -1.35369023	     -7.49999987	      1.04618542	      1.09164945	    -10.50447571	     87.23817161	      0.67522032	     65.15901878	    119.42083481	     87.32904783	     86.06162644	     -1.96394197	     66.50087812	    128.90293733	     81.79679439
     13.43333330	     -5.29717182	      5.46092167	    -10.99158631	      0.18147210	      1.06891804	      0.09917060	      5.49203392	      3.24189740	     -4.97344615	      3.82282758	      0.06672093	      8.49075324	     -3.03406462	     -7.49999987	     12.96137048	     -2.08878857	     -0.78357962	     17.65965428	      0.30821911	      5.54964416	     -1.48990074	     -7.49999987	      0.89389002	      1.10349449	    -10.68282390	     87.11496073	      0.75560538	     65.00427482	    118.46163116	     88.16365027	     86.00406610	     -2.98197029	     66.25773954	    128.22927916	     81.90256569
     13.45000000	     -5.36382049	      5.45358651	    -10.92104862	      0.18057613	      1.06953005	      0.10021086	      5.74156827	      3.30940743	     -4.94278056	      3.99818988	      0.06978158	      8.64408853	     -3.21168033	     -7.49999987	     13.18853271	     -2.15060719	     -0.76077111	     17.75639797	      0.30990761	      5.41169286	     -1.47882805	     -7.49999987	      1.03582829	      1.13369374	    -10.51363275	     86.99910866	      0.67082109	     65.22017927	    118.14337392	     87.66976984	     85.54463576	     -2.80001515	     66.33688537	    127.87514711	     81.47547909
     13.46666670	     -5.39950190	      5.47384008	    -11.08286873	      0.17820769	      1.06839246	      0.10086630	      6.04936214	      3.37142803	     -4.67922179	      4.21303744	      0.07353137	      8.81482393	     -3.61793187	     -7.49999987	     13.41606278	     -2.20780789	     -0.77441543	     17.91204935	      0.31262424	      5.37940251	     -1.62762237	     -7.49999987	      0.92471634	      1.09713553	    -10.43996167	     87.03230920	      0.67684620	     65.33453560	    117.79660091	     86.25990454	     85.57138354	     -3.28281537	     66.30454939	    127.61135361	     80.30219452
     13.48333330	     -5.68999557	      5.53577884	    -10.92574459	      0.17825880	      1.06747281	      0.10073667	      6.51050961	      3.42507347	     -4.82207880	      4.22703774	      0.07377573	      8.90246443	     -3.80033337	     -7.49999987	     13.80694127	     -2.20885603	     -0.63614595	     17.89774380	      0.31237456	      5.51725037	     -1.52833311	     -7.49999987	      1.22815023	      1.11827304	    -10.19096585	     87.07319333	      0.47014465	     65.46860637	    117.83477111	     85.44594079	     85.46674421	     -2.38739298	     66.16086718	    128.05336080	     79.67383962
     13.50000000	     -5.73118266	      5.52806845	    -11.03145842	      0.17862019	      1.06818295	      0.10186027	      6.65789674	      3.52362593	     -4.70737675	      4.30382980	      0.07511600	      9.18676055	     -3.72045131	     -7.49999987	     13.69221255	     -2.28230335	     -0.69808888	     17.69438020	      0.30882519	      6.05671695	     -1.34276434	     -7.49999987	      1.06505517	      1.12639490	    -10.18317548	     87.20689720	      0.72274163	     65.41132101	    118.05715056	     85.36220348	     85.88474698	     -1.93046762	     66.39135472	    128.45655666	     79.75740426
     13.51666670	     -5.84166696	      5.49877896	    -11.18302798	      0.17683269	      1.06611868	      0.10210517	      6.93679929	      3.66829138	     -4.53242324	      4.50084839	      0.07855462	      9.39093817	     -3.96656039	     -7.49999987	     13.75544401	     -2.41296191	     -0.82506392	     17.67362555	      0.30846296	      6.43474378	     -1.30421213	     -7.49999987	      1.01487654	      1.19259203	    -10.25572967	     87.39361676	      1.09218040	     65.32010212	    118.61315287	     84.96237433	     86.31330470	     -1.55491256	     66.43620812	    128.63986617	     79.59937082
     13.53333330	     -6.14897169	      5.54118495	    -11.23566881	      0.17538641	      1.06528429	      0.10261133	      7.50586174	      3.75043377	     -4.36466878	      4.70051537	      0.08203947	      9.70080860	     -4.01684607	     -7.49999987	     14.12297792	     -2.46600399	     -0.98096114	     17.55068243	      0.30631719	      6.49257518	     -1.35959820	     -7.49999987	      1.20623063	      1.15847392	    -10.44650721	     87.10435955	      0.95486992	     65.19437119	    118.27452059	     84.60703123	     86.37288465	     -2.14464285	     66.45494578	    128.00425916	     79.31149921
     13.55000000	     -6.34646043	      5.63633438	    -11.01291522	      0.17506978	      1.06531148	      0.10442379	      7.87669750	      3.76623263	     -4.46598976	      4.78349943	      0.08348781	      9.56466169	     -4.57050141	     -7.49999987	     14.60199311	     -2.47370692	     -1.03545684	     17.70263437	      0.30896926	      6.15130680	     -1.48190292	     -7.49999987	      1.35670500	      1.09511438	    -10.38668930	     87.13829853	      0.95920929	     65.35943072	    119.29667644	     84.30270498	     86.46423129	     -1.81014873	     67.09041282	    128.85252031	     79.12785031
     13.56666670	     -6.55093458	      5.65408212	    -10.80613528	      0.17527050	      1.06276394	      0.10435032	      8.23519323	      3.84049523	     -4.81560287	      5.05080753	      0.08815322	      9.43090112	     -4.65380133	     -7.49999987	     14.95844651	     -2.54774524	     -0.87997584	     17.96406030	      0.31353200	      6.28584114	     -1.46401364	     -7.49999987	      1.79989855	      1.13826171	    -10.33074228	     87.15145152	      1.11992663	     65.15206752	    120.42536310	     83.78153907	     86.31668546	     -1.79642074	     67.19202055	    128.97481435	     78.75478634
     13.58333330	     -6.60672556	      5.66484377	    -10.72278326	      0.17361076	      1.06488738	      0.10481610	      8.47523747	      3.91904996	     -4.86620309	      5.27918675	      0.09213919	      8.91448202	     -5.33552891	     -7.49999987	     15.20451984	     -2.60610972	     -0.82052986	     18.27058031	      0.31888178	      6.36610427	     -1.47285554	     -7.49999987	      1.73062679	      1.13636168	    -10.10774762	     87.08150821	      0.59897409	     64.88360653	    120.55189561	     88.71192184	     86.72823970	     -1.29293133	     67.47068912	    129.09945877	     83.61345949
     13.60000000	     -6.70333595	      5.65293023	    -10.51219683	      0.17143470	      1.06583925	      0.10573026	      8.81885632	      4.00030865	     -5.16922342	      5.50008380	      0.09599457	      8.62215537	     -5.56057613	     -7.49999987	     15.64902364	     -2.66958757	     -0.61201927	     18.66558024	      0.32577583	      6.53060008	     -1.43352330	     -7.49999987	      1.81688233	      1.24203412	    -10.02057775	     86.87913759	      0.65305124	     65.04820002	    121.19622739	     87.59198070	     86.61619444	     -0.94911863	     67.98484571	    129.54188857	     82.71397329
     13.61666670	     -6.77648243	      5.64429714	    -10.46182270	      0.17007288	      1.06567311	      0.10705844	      9.24505923	      4.07304929	     -5.12523004	      5.92292420	      0.10337453	      8.42966751	     -6.04942214	     -7.49999987	     16.35851943	     -2.77549509	     -0.53594919	     19.61908390	      0.34241761	      6.52675058	     -1.67984628	     -7.49999987	      1.74896938	      1.32805370	     -9.72550047	     86.71895542	      0.41348651	     65.44395332	    120.96651530	     86.92717383	     86.79417145	     -1.07480453	     68.48225752	    129.04059625	     82.11106074
     13.63333330	     -6.86081350	      5.68130808	    -10.37577154	      0.16694730	      1.06347206	      0.10790082	      9.81191776	      4.11286677	     -5.01376518	      6.44546674	      0.11249462	      8.62152676	     -6.25778435	     -7.49999987	     17.16809642	     -2.85572047	     -0.51802450	     20.62088610	      0.35990236	      6.42550811	     -1.99279273	     -7.49999987	      1.65472441	      1.35827950	     -9.32184068	     86.43745776	     -0.46640905	     65.84785527	    119.51423193	     85.87871696	     86.93673597	     -1.15945639	     69.08221597	    128.47823224	     81.17777903
     13.65000000	     -6.98084751	      5.75395557	    -10.38187129	      0.16157846	      1.06403958	      0.10881633	     10.51043050	      4.16697821	     -4.67928943	      7.19742265	      0.12561872	      8.76313447	     -6.77282948	     -7.49999987	     18.43933951	     -2.94123643	     -0.34160317	     22.22073626	      0.38782501	      6.19347682	     -2.56854005	     -7.49999987	      1.49902847	      1.36589432	     -9.06002993	     86.51451062	     -0.50762666	     65.71593541	    119.37438295	     87.29968306	     87.07218401	     -1.46529513	     69.56258537	    128.11856882	     82.20052770
